<svg width="76" height="100" viewBox="0 0 76 100" fill="none" xmlns="http://www.w3.org/2000/svg">
<path d="M0 0H76V90C76 95.5228 71.5228 100 66 100H10C4.47715 100 0 95.5228 0 90V0Z" fill="#DDDDDD"/>
<path fill-rule="evenodd" clip-rule="evenodd" d="M53.0821 21.4531V31.9063L51.542 30.8966C50.479 30.1997 48.8687 29.8752 46.3504 29.8493L42.6988 29.8117L42.5434 33.181C42.43 35.6383 42.6741 37.0826 43.4436 38.5156C44.748 40.9443 48.1801 42.9866 50.9774 42.999L53.0821 43.008V47.0129V51.0173L50.7512 50.7045C47.662 50.2901 45.6853 48.2859 45.266 45.1424C45.0084 43.209 44.7199 42.7272 43.8213 42.7272C42.9121 42.7272 42.6674 43.1573 42.5321 44.9919C42.233 49.062 45.9176 53.0152 50.4924 53.5313L53.0821 53.8233V57.4003V60.9774H50.7938C47.9365 60.9774 45.2245 58.5919 45.2245 56.079C45.2245 54.222 44.3158 53.0691 43.1916 53.5004C42.0405 53.9423 42.2436 57.5958 43.5379 59.7189C45.014 62.1414 47.8091 63.7806 50.4689 63.7828C52.1526 63.7845 52.6903 64.0316 52.9193 64.9082C53.2903 66.3272 55.1419 66.376 55.5853 64.9784C55.8373 64.1855 56.623 63.8575 58.7642 63.6514C61.0839 63.4285 61.9774 63.009 63.6101 61.3755C65.3141 59.6701 65.6497 58.9086 65.8709 56.2447C66.1066 53.3954 66.0286 53.1158 64.9981 53.1158C63.7342 53.1158 63.1847 54.1271 63.1847 56.4541C63.1847 58.8165 60.7348 60.9774 58.0571 60.9774H55.8884V57.3273C55.8884 53.7413 55.9147 53.6773 57.3948 53.6773C59.7627 53.6773 63.5933 51.5305 64.8471 49.5C66.2638 47.2066 66.4091 43.1332 65.0924 42.6278C63.9806 42.201 63.2049 43.346 63.1931 45.4316C63.1808 47.7457 62.2182 49.1771 60.0709 50.075C56.2869 51.6563 55.8884 51.3576 55.8884 46.9388V43.008L57.7124 43.0069C60.2875 43.0057 63.2212 41.375 64.7399 39.1002C65.8249 37.4762 66.0101 36.557 65.8737 33.4848L65.7104 29.8117L63.0949 29.6427C61.6182 29.5472 59.5725 29.8527 58.3961 30.3446C57.25 30.8236 56.2173 31.2156 56.1005 31.2156C55.9838 31.2156 55.8884 27.0669 55.8884 21.9961C55.8884 16.9254 55.7351 12.3769 55.5477 11.8884C55.3602 11.3998 54.7288 11 54.1445 11C53.1399 11 53.0821 11.5711 53.0821 21.4531ZM48.0493 15.7512C47.6637 16.2156 47.4869 18.4101 47.5874 21.4733C47.7361 26.014 47.8472 26.4424 48.8726 26.4424C49.9065 26.4424 50.0081 26.0145 50.1551 21.0348C50.2831 16.7036 50.1518 15.5648 49.4945 15.3127C49.0433 15.1391 48.3928 15.3368 48.0493 15.7512ZM58.7463 15.7108C58.322 16.2224 58.1457 18.2697 58.2513 21.4733C58.4 26.014 58.5111 26.4424 59.5365 26.4424C60.5653 26.4424 60.6725 26.0145 60.8196 21.3335C60.9402 17.4813 60.7859 16.0634 60.1921 15.571C59.5854 15.0667 59.2542 15.0987 58.7463 15.7108ZM49.7864 33.218C51.4943 34.1019 53.0821 36.9164 53.0821 39.0592C53.0821 39.9487 52.7167 40.2003 51.4247 40.2003C47.7468 40.2003 45.2245 37.6991 45.2245 34.0514C45.2245 32.5902 45.4344 32.3386 46.6557 32.3386C47.4426 32.3386 48.8513 32.7345 49.7864 33.218ZM63.1847 34.5534C63.1847 37.6082 61.3887 39.6101 58.2726 40.0284L55.8884 40.3479V38.2719C55.8884 37.1297 56.1471 35.7118 56.4637 35.12C57.2163 33.7133 59.701 32.3892 61.6412 32.3611C63.068 32.3403 63.1847 32.506 63.1847 34.5534ZM28.5271 35.7146C27.8322 35.9999 27.2643 36.5474 27.2643 36.931C27.2643 37.3145 28.8717 39.1597 30.8367 41.0313C32.8016 42.903 35.3351 45.882 36.4666 47.6519C38.6061 50.9982 39.4009 51.5125 40.0037 49.9402C40.5419 48.5369 38.275 44.7544 34.7436 41.1644L31.5854 37.9541H35.6376C39.5193 37.9541 39.6826 37.9007 39.5109 36.6906C39.3425 35.5041 39.04 35.4198 34.5606 35.312C31.9367 35.2486 29.2214 35.4299 28.5271 35.7146ZM16.0969 42.7182C12.4785 46.5468 11.0164 49.6662 11.0001 53.5925C10.9844 57.484 12.2568 60.0761 15.1658 62.0791C19.2865 64.9155 23.1401 65.7101 32.8768 65.7314C41.2087 65.7499 41.5763 65.7028 41.5763 64.6274C41.5763 63.5655 41.088 63.4858 32.5962 63.1623C18.3824 62.6204 13.7941 60.3086 13.7941 53.6874C13.7941 49.888 16.9646 44.0642 19.465 43.2702C21.0253 42.7749 23.9141 44.7589 27.4276 48.7396C30.3652 52.0685 31.7543 52.5975 31.7543 50.3872C31.7543 48.0293 22.3156 39.6668 19.6283 39.6438C19.2871 39.641 17.6982 41.0246 16.0969 42.7182Z" fill="black"/>
<path d="M18.3958 71.144C18.3425 71.4427 18.2225 71.7227 18.0358 71.984C17.8491 72.2453 17.5905 72.456 17.2598 72.616C16.9345 72.776 16.5425 72.856 16.0838 72.856H15.1478L14.7718 75H13.6438L14.6358 69.416H16.6918C17.2625 69.416 17.6945 69.544 17.9878 69.8C18.2811 70.0507 18.4278 70.3867 18.4278 70.808C18.4278 70.9307 18.4171 71.0427 18.3958 71.144ZM16.1958 71.976C16.4998 71.976 16.7398 71.9013 16.9158 71.752C17.0918 71.6027 17.2038 71.4 17.2518 71.144C17.2625 71.096 17.2678 71.0267 17.2678 70.936C17.2678 70.5147 17.0065 70.304 16.4838 70.304H15.6038L15.3078 71.976H16.1958ZM21.599 69.416C22.1697 69.416 22.6017 69.5467 22.895 69.808C23.1883 70.064 23.335 70.4 23.335 70.816C23.335 70.9173 23.327 71.0213 23.311 71.128C23.247 71.4907 23.0817 71.8213 22.815 72.12C22.5537 72.4133 22.2017 72.6187 21.759 72.736L22.695 75H21.391L20.559 72.824H20.023L19.639 75H18.511L19.503 69.416H21.599ZM22.159 71.152C22.1697 71.056 22.175 70.992 22.175 70.96C22.175 70.7573 22.111 70.6 21.983 70.488C21.855 70.376 21.6603 70.32 21.399 70.32H20.463L20.167 71.992H21.103C21.4017 71.992 21.639 71.9173 21.815 71.768C21.9963 71.6187 22.111 71.4133 22.159 71.152ZM26.252 75.056C25.7827 75.056 25.3667 74.9573 25.004 74.76C24.6467 74.5573 24.3693 74.28 24.172 73.928C23.9747 73.5707 23.876 73.1627 23.876 72.704C23.876 72.064 24.0173 71.488 24.3 70.976C24.588 70.464 24.9827 70.064 25.484 69.776C25.9907 69.4827 26.5587 69.336 27.188 69.336C27.6627 69.336 28.0787 69.4347 28.436 69.632C28.7987 69.8293 29.0787 70.1067 29.276 70.464C29.4733 70.816 29.572 71.2187 29.572 71.672C29.572 72.3227 29.4307 72.904 29.148 73.416C28.8653 73.928 28.4707 74.3307 27.964 74.624C27.4573 74.912 26.8867 75.056 26.252 75.056ZM26.412 74.024C26.812 74.024 27.164 73.9227 27.468 73.72C27.7773 73.5173 28.0147 73.2453 28.18 72.904C28.3507 72.5573 28.436 72.1813 28.436 71.776C28.436 71.3387 28.3133 70.9947 28.068 70.744C27.8227 70.4933 27.4787 70.368 27.036 70.368C26.6413 70.368 26.2893 70.4693 25.98 70.672C25.676 70.8747 25.4387 71.1467 25.268 71.488C25.1027 71.8293 25.02 72.2027 25.02 72.608C25.02 73.0453 25.14 73.392 25.38 73.648C25.6253 73.8987 25.9693 74.024 26.412 74.024ZM31.6693 69.416L32.4133 73.856L34.7333 69.416H35.9253L32.8933 75H31.5333L30.4693 69.416H31.6693ZM37.7168 69.416L36.7328 75H35.6048L36.5968 69.416H37.7168ZM39.9513 75.056C39.3913 75.056 38.93 74.9307 38.5673 74.68C38.21 74.424 38.0313 74.0667 38.0313 73.608C38.0313 73.56 38.0366 73.488 38.0473 73.392H39.1913C39.17 73.616 39.2286 73.8 39.3673 73.944C39.5113 74.088 39.7193 74.16 39.9913 74.16C40.2633 74.16 40.4766 74.104 40.6313 73.992C40.7913 73.8747 40.8713 73.7093 40.8713 73.496C40.8713 73.2987 40.7886 73.1413 40.6233 73.024C40.4633 72.9067 40.21 72.776 39.8633 72.632C39.5433 72.4987 39.282 72.376 39.0793 72.264C38.882 72.152 38.7113 71.9973 38.5673 71.8C38.4286 71.5973 38.3593 71.344 38.3593 71.04C38.3593 70.6933 38.4473 70.392 38.6233 70.136C38.8046 69.88 39.05 69.6827 39.3593 69.544C39.674 69.4053 40.0313 69.336 40.4313 69.336C40.826 69.336 41.1673 69.4027 41.4553 69.536C41.7486 69.664 41.9673 69.848 42.1113 70.088C42.2606 70.328 42.3246 70.608 42.3033 70.928H41.1113L41.1193 70.84C41.1193 70.664 41.0526 70.52 40.9193 70.408C40.7913 70.296 40.61 70.24 40.3753 70.24C40.1246 70.24 39.922 70.2987 39.7673 70.416C39.6126 70.5333 39.5353 70.6933 39.5353 70.896C39.5353 71.0293 39.578 71.1467 39.6633 71.248C39.754 71.344 39.8633 71.4293 39.9913 71.504C40.1193 71.5733 40.3033 71.664 40.5433 71.776C40.858 71.9147 41.1166 72.0453 41.3193 72.168C41.522 72.2907 41.6953 72.4533 41.8393 72.656C41.9833 72.8587 42.0553 73.1067 42.0553 73.4C42.0553 73.72 41.9673 74.0053 41.7913 74.256C41.6206 74.5067 41.3753 74.704 41.0553 74.848C40.7406 74.9867 40.3726 75.056 39.9513 75.056ZM45.3301 75.056C44.8608 75.056 44.4448 74.9573 44.0821 74.76C43.7248 74.5573 43.4475 74.28 43.2501 73.928C43.0528 73.5707 42.9541 73.1627 42.9541 72.704C42.9541 72.064 43.0955 71.488 43.3781 70.976C43.6661 70.464 44.0608 70.064 44.5621 69.776C45.0688 69.4827 45.6368 69.336 46.2661 69.336C46.7408 69.336 47.1568 69.4347 47.5141 69.632C47.8768 69.8293 48.1568 70.1067 48.3541 70.464C48.5515 70.816 48.6501 71.2187 48.6501 71.672C48.6501 72.3227 48.5088 72.904 48.2261 73.416C47.9435 73.928 47.5488 74.3307 47.0421 74.624C46.5355 74.912 45.9648 75.056 45.3301 75.056ZM45.4901 74.024C45.8901 74.024 46.2421 73.9227 46.5461 73.72C46.8555 73.5173 47.0928 73.2453 47.2581 72.904C47.4288 72.5573 47.5141 72.1813 47.5141 71.776C47.5141 71.3387 47.3915 70.9947 47.1461 70.744C46.9008 70.4933 46.5568 70.368 46.1141 70.368C45.7195 70.368 45.3675 70.4693 45.0581 70.672C44.7541 70.8747 44.5168 71.1467 44.3461 71.488C44.1808 71.8293 44.0981 72.2027 44.0981 72.608C44.0981 73.0453 44.2181 73.392 44.4581 73.648C44.7035 73.8987 45.0475 74.024 45.4901 74.024ZM47.3621 68.2L45.3621 69.04L45.5061 68.24L47.5221 67.288L47.3621 68.2ZM52.0834 69.416C52.654 69.416 53.086 69.5467 53.3794 69.808C53.6727 70.064 53.8194 70.4 53.8194 70.816C53.8194 70.9173 53.8114 71.0213 53.7954 71.128C53.7314 71.4907 53.566 71.8213 53.2994 72.12C53.038 72.4133 52.686 72.6187 52.2434 72.736L53.1794 75H51.8754L51.0434 72.824H50.5074L50.1234 75H48.9954L49.9874 69.416H52.0834ZM52.6434 71.152C52.654 71.056 52.6594 70.992 52.6594 70.96C52.6594 70.7573 52.5954 70.6 52.4674 70.488C52.3394 70.376 52.1447 70.32 51.8834 70.32H50.9474L50.6514 71.992H51.5874C51.886 71.992 52.1234 71.9173 52.2994 71.768C52.4807 71.6187 52.5954 71.4133 52.6434 71.152ZM56.2324 69.416L55.2484 75H54.1204L55.1124 69.416H56.2324ZM58.9629 75.056C58.4936 75.056 58.0776 74.9573 57.7149 74.76C57.3576 74.5573 57.0803 74.28 56.8829 73.928C56.6856 73.5707 56.5869 73.1627 56.5869 72.704C56.5869 72.064 56.7283 71.488 57.0109 70.976C57.2989 70.464 57.6936 70.064 58.1949 69.776C58.7016 69.4827 59.2696 69.336 59.8989 69.336C60.3736 69.336 60.7896 69.4347 61.1469 69.632C61.5096 69.8293 61.7896 70.1067 61.9869 70.464C62.1843 70.816 62.2829 71.2187 62.2829 71.672C62.2829 72.3227 62.1416 72.904 61.8589 73.416C61.5763 73.928 61.1816 74.3307 60.6749 74.624C60.1683 74.912 59.5976 75.056 58.9629 75.056ZM59.1229 74.024C59.5229 74.024 59.8749 73.9227 60.1789 73.72C60.4883 73.5173 60.7256 73.2453 60.8909 72.904C61.0616 72.5573 61.1469 72.1813 61.1469 71.776C61.1469 71.3387 61.0243 70.9947 60.7789 70.744C60.5336 70.4933 60.1896 70.368 59.7469 70.368C59.3523 70.368 59.0003 70.4693 58.6909 70.672C58.3869 70.8747 58.1496 71.1467 57.9789 71.488C57.8136 71.8293 57.7309 72.2027 57.7309 72.608C57.7309 73.0453 57.8509 73.392 58.0909 73.648C58.3363 73.8987 58.6803 74.024 59.1229 74.024Z" fill="black"/>
</svg>
