<svg width="72" height="66" viewBox="0 0 72 66" fill="none" xmlns="http://www.w3.org/2000/svg">
<path fill-rule="evenodd" clip-rule="evenodd" d="M51.0821 10.4531V20.9063L49.542 19.8966C48.479 19.1997 46.8687 18.8752 44.3504 18.8493L40.6988 18.8117L40.5434 22.181C40.43 24.6383 40.6741 26.0826 41.4436 27.5156C42.748 29.9443 46.1801 31.9866 48.9774 31.999L51.0821 32.008V36.0129V40.0173L48.7512 39.7045C45.662 39.2901 43.6853 37.2859 43.266 34.1424C43.0084 32.209 42.7199 31.7272 41.8213 31.7272C40.9121 31.7272 40.6674 32.1573 40.5321 33.9919C40.233 38.062 43.9176 42.0152 48.4924 42.5313L51.0821 42.8233V46.4003V49.9774H48.7938C45.9365 49.9774 43.2245 47.5919 43.2245 45.079C43.2245 43.222 42.3158 42.0691 41.1916 42.5004C40.0405 42.9423 40.2436 46.5958 41.5379 48.7189C43.014 51.1414 45.8091 52.7806 48.4689 52.7828C50.1526 52.7845 50.6903 53.0316 50.9193 53.9082C51.2903 55.3272 53.1419 55.376 53.5853 53.9784C53.8373 53.1855 54.623 52.8575 56.7642 52.6514C59.0839 52.4285 59.9774 52.009 61.6101 50.3755C63.3141 48.6701 63.6497 47.9086 63.8709 45.2447C64.1066 42.3954 64.0286 42.1158 62.9981 42.1158C61.7342 42.1158 61.1847 43.1271 61.1847 45.4541C61.1847 47.8165 58.7348 49.9774 56.0571 49.9774H53.8884V46.3273C53.8884 42.7413 53.9147 42.6773 55.3948 42.6773C57.7627 42.6773 61.5933 40.5305 62.8471 38.5C64.2638 36.2066 64.4091 32.1332 63.0924 31.6278C61.9806 31.201 61.2049 32.346 61.1931 34.4316C61.1808 36.7457 60.2182 38.1771 58.0709 39.075C54.2869 40.6563 53.8884 40.3576 53.8884 35.9388V32.008L55.7124 32.0069C58.2875 32.0057 61.2212 30.375 62.7399 28.1002C63.8249 26.4762 64.0101 25.557 63.8737 22.4848L63.7104 18.8117L61.0949 18.6427C59.6182 18.5472 57.5725 18.8527 56.3961 19.3446C55.25 19.8236 54.2173 20.2156 54.1005 20.2156C53.9838 20.2156 53.8884 16.0669 53.8884 10.9961C53.8884 5.92541 53.7351 1.3769 53.5477 0.888362C53.3602 0.399819 52.7288 0 52.1445 0C51.1399 0 51.0821 0.57109 51.0821 10.4531ZM46.0493 4.75122C45.6637 5.21562 45.4869 7.41013 45.5874 10.4733C45.7361 15.014 45.8472 15.4424 46.8726 15.4424C47.9065 15.4424 48.0081 15.0145 48.1551 10.0348C48.2831 5.7036 48.1518 4.56479 47.4945 4.31265C47.0433 4.13914 46.3928 4.3368 46.0493 4.75122ZM56.7463 4.71079C56.322 5.22235 56.1457 7.26974 56.2513 10.4733C56.4 15.014 56.5111 15.4424 57.5365 15.4424C58.5653 15.4424 58.6725 15.0145 58.8196 10.3335C58.9402 6.48133 58.7859 5.06344 58.1921 4.57096C57.5854 4.0667 57.2542 4.09871 56.7463 4.71079ZM47.7864 22.218C49.4943 23.1019 51.0821 25.9164 51.0821 28.0592C51.0821 28.9487 50.7167 29.2003 49.4247 29.2003C45.7468 29.2003 43.2245 26.6991 43.2245 23.0514C43.2245 21.5902 43.4344 21.3386 44.6557 21.3386C45.4426 21.3386 46.8513 21.7345 47.7864 22.218ZM61.1847 23.5534C61.1847 26.6082 59.3887 28.6101 56.2726 29.0284L53.8884 29.3479V27.2719C53.8884 26.1297 54.1471 24.7118 54.4637 24.12C55.2163 22.7133 57.701 21.3892 59.6412 21.3611C61.068 21.3403 61.1847 21.506 61.1847 23.5534ZM26.5271 24.7146C25.8322 24.9999 25.2643 25.5474 25.2643 25.931C25.2643 26.3145 26.8717 28.1597 28.8367 30.0313C30.8016 31.903 33.3351 34.882 34.4666 36.6519C36.6061 39.9982 37.4009 40.5125 38.0037 38.9402C38.5419 37.5369 36.275 33.7544 32.7436 30.1644L29.5854 26.9541H33.6376C37.5193 26.9541 37.6826 26.9007 37.5109 25.6906C37.3425 24.5041 37.04 24.4198 32.5606 24.312C29.9367 24.2486 27.2214 24.4299 26.5271 24.7146ZM14.0969 31.7182C10.4785 35.5468 9.01642 38.6662 9.00014 42.5925C8.98443 46.484 10.2568 49.0761 13.1658 51.0791C17.2865 53.9155 21.1401 54.7101 30.8768 54.7314C39.2087 54.7499 39.5763 54.7028 39.5763 53.6274C39.5763 52.5655 39.088 52.4858 30.5962 52.1623C16.3824 51.6204 11.7941 49.3086 11.7941 42.6874C11.7941 38.888 14.9646 33.0642 17.465 32.2702C19.0253 31.7749 21.9141 33.7589 25.4276 37.7396C28.3652 41.0685 29.7543 41.5975 29.7543 39.3872C29.7543 37.0293 20.3156 28.6668 17.6283 28.6438C17.2871 28.641 15.6982 30.0246 14.0969 31.7182Z" fill="black"/>
<path d="M16.3958 60.144C16.3425 60.4427 16.2225 60.7227 16.0358 60.984C15.8491 61.2453 15.5905 61.456 15.2598 61.616C14.9345 61.776 14.5425 61.856 14.0838 61.856H13.1478L12.7718 64H11.6438L12.6358 58.416H14.6918C15.2625 58.416 15.6945 58.544 15.9878 58.8C16.2811 59.0507 16.4278 59.3867 16.4278 59.808C16.4278 59.9307 16.4171 60.0427 16.3958 60.144ZM14.1958 60.976C14.4998 60.976 14.7398 60.9013 14.9158 60.752C15.0918 60.6027 15.2038 60.4 15.2518 60.144C15.2625 60.096 15.2678 60.0267 15.2678 59.936C15.2678 59.5147 15.0065 59.304 14.4838 59.304H13.6038L13.3078 60.976H14.1958ZM19.599 58.416C20.1697 58.416 20.6017 58.5467 20.895 58.808C21.1883 59.064 21.335 59.4 21.335 59.816C21.335 59.9173 21.327 60.0213 21.311 60.128C21.247 60.4907 21.0817 60.8213 20.815 61.12C20.5537 61.4133 20.2017 61.6187 19.759 61.736L20.695 64H19.391L18.559 61.824H18.023L17.639 64H16.511L17.503 58.416H19.599ZM20.159 60.152C20.1697 60.056 20.175 59.992 20.175 59.96C20.175 59.7573 20.111 59.6 19.983 59.488C19.855 59.376 19.6603 59.32 19.399 59.32H18.463L18.167 60.992H19.103C19.4017 60.992 19.639 60.9173 19.815 60.768C19.9963 60.6187 20.111 60.4133 20.159 60.152ZM24.252 64.056C23.7827 64.056 23.3667 63.9573 23.004 63.76C22.6467 63.5573 22.3693 63.28 22.172 62.928C21.9747 62.5707 21.876 62.1627 21.876 61.704C21.876 61.064 22.0173 60.488 22.3 59.976C22.588 59.464 22.9827 59.064 23.484 58.776C23.9907 58.4827 24.5587 58.336 25.188 58.336C25.6627 58.336 26.0787 58.4347 26.436 58.632C26.7987 58.8293 27.0787 59.1067 27.276 59.464C27.4733 59.816 27.572 60.2187 27.572 60.672C27.572 61.3227 27.4307 61.904 27.148 62.416C26.8653 62.928 26.4707 63.3307 25.964 63.624C25.4573 63.912 24.8867 64.056 24.252 64.056ZM24.412 63.024C24.812 63.024 25.164 62.9227 25.468 62.72C25.7773 62.5173 26.0147 62.2453 26.18 61.904C26.3507 61.5573 26.436 61.1813 26.436 60.776C26.436 60.3387 26.3133 59.9947 26.068 59.744C25.8227 59.4933 25.4787 59.368 25.036 59.368C24.6413 59.368 24.2893 59.4693 23.98 59.672C23.676 59.8747 23.4387 60.1467 23.268 60.488C23.1027 60.8293 23.02 61.2027 23.02 61.608C23.02 62.0453 23.14 62.392 23.38 62.648C23.6253 62.8987 23.9693 63.024 24.412 63.024ZM29.6693 58.416L30.4133 62.856L32.7333 58.416H33.9253L30.8933 64H29.5333L28.4693 58.416H29.6693ZM35.7168 58.416L34.7328 64H33.6048L34.5968 58.416H35.7168ZM37.9513 64.056C37.3913 64.056 36.93 63.9307 36.5673 63.68C36.21 63.424 36.0313 63.0667 36.0313 62.608C36.0313 62.56 36.0366 62.488 36.0473 62.392H37.1913C37.17 62.616 37.2286 62.8 37.3673 62.944C37.5113 63.088 37.7193 63.16 37.9913 63.16C38.2633 63.16 38.4766 63.104 38.6313 62.992C38.7913 62.8747 38.8713 62.7093 38.8713 62.496C38.8713 62.2987 38.7886 62.1413 38.6233 62.024C38.4633 61.9067 38.21 61.776 37.8633 61.632C37.5433 61.4987 37.282 61.376 37.0793 61.264C36.882 61.152 36.7113 60.9973 36.5673 60.8C36.4286 60.5973 36.3593 60.344 36.3593 60.04C36.3593 59.6933 36.4473 59.392 36.6233 59.136C36.8046 58.88 37.05 58.6827 37.3593 58.544C37.674 58.4053 38.0313 58.336 38.4313 58.336C38.826 58.336 39.1673 58.4027 39.4553 58.536C39.7486 58.664 39.9673 58.848 40.1113 59.088C40.2606 59.328 40.3246 59.608 40.3033 59.928H39.1113L39.1193 59.84C39.1193 59.664 39.0526 59.52 38.9193 59.408C38.7913 59.296 38.61 59.24 38.3753 59.24C38.1246 59.24 37.922 59.2987 37.7673 59.416C37.6126 59.5333 37.5353 59.6933 37.5353 59.896C37.5353 60.0293 37.578 60.1467 37.6633 60.248C37.754 60.344 37.8633 60.4293 37.9913 60.504C38.1193 60.5733 38.3033 60.664 38.5433 60.776C38.858 60.9147 39.1166 61.0453 39.3193 61.168C39.522 61.2907 39.6953 61.4533 39.8393 61.656C39.9833 61.8587 40.0553 62.1067 40.0553 62.4C40.0553 62.72 39.9673 63.0053 39.7913 63.256C39.6206 63.5067 39.3753 63.704 39.0553 63.848C38.7406 63.9867 38.3726 64.056 37.9513 64.056ZM43.3301 64.056C42.8608 64.056 42.4448 63.9573 42.0821 63.76C41.7248 63.5573 41.4475 63.28 41.2501 62.928C41.0528 62.5707 40.9541 62.1627 40.9541 61.704C40.9541 61.064 41.0955 60.488 41.3781 59.976C41.6661 59.464 42.0608 59.064 42.5621 58.776C43.0688 58.4827 43.6368 58.336 44.2661 58.336C44.7408 58.336 45.1568 58.4347 45.5141 58.632C45.8768 58.8293 46.1568 59.1067 46.3541 59.464C46.5515 59.816 46.6501 60.2187 46.6501 60.672C46.6501 61.3227 46.5088 61.904 46.2261 62.416C45.9435 62.928 45.5488 63.3307 45.0421 63.624C44.5355 63.912 43.9648 64.056 43.3301 64.056ZM43.4901 63.024C43.8901 63.024 44.2421 62.9227 44.5461 62.72C44.8555 62.5173 45.0928 62.2453 45.2581 61.904C45.4288 61.5573 45.5141 61.1813 45.5141 60.776C45.5141 60.3387 45.3915 59.9947 45.1461 59.744C44.9008 59.4933 44.5568 59.368 44.1141 59.368C43.7195 59.368 43.3675 59.4693 43.0581 59.672C42.7541 59.8747 42.5168 60.1467 42.3461 60.488C42.1808 60.8293 42.0981 61.2027 42.0981 61.608C42.0981 62.0453 42.2181 62.392 42.4581 62.648C42.7035 62.8987 43.0475 63.024 43.4901 63.024ZM45.3621 57.2L43.3621 58.04L43.5061 57.24L45.5221 56.288L45.3621 57.2ZM50.0834 58.416C50.654 58.416 51.086 58.5467 51.3794 58.808C51.6727 59.064 51.8194 59.4 51.8194 59.816C51.8194 59.9173 51.8114 60.0213 51.7954 60.128C51.7314 60.4907 51.566 60.8213 51.2994 61.12C51.038 61.4133 50.686 61.6187 50.2434 61.736L51.1794 64H49.8754L49.0434 61.824H48.5074L48.1234 64H46.9954L47.9874 58.416H50.0834ZM50.6434 60.152C50.654 60.056 50.6594 59.992 50.6594 59.96C50.6594 59.7573 50.5954 59.6 50.4674 59.488C50.3394 59.376 50.1447 59.32 49.8834 59.32H48.9474L48.6514 60.992H49.5874C49.886 60.992 50.1234 60.9173 50.2994 60.768C50.4807 60.6187 50.5954 60.4133 50.6434 60.152ZM54.2324 58.416L53.2484 64H52.1204L53.1124 58.416H54.2324ZM56.9629 64.056C56.4936 64.056 56.0776 63.9573 55.7149 63.76C55.3576 63.5573 55.0803 63.28 54.8829 62.928C54.6856 62.5707 54.5869 62.1627 54.5869 61.704C54.5869 61.064 54.7283 60.488 55.0109 59.976C55.2989 59.464 55.6936 59.064 56.1949 58.776C56.7016 58.4827 57.2696 58.336 57.8989 58.336C58.3736 58.336 58.7896 58.4347 59.1469 58.632C59.5096 58.8293 59.7896 59.1067 59.9869 59.464C60.1843 59.816 60.2829 60.2187 60.2829 60.672C60.2829 61.3227 60.1416 61.904 59.8589 62.416C59.5763 62.928 59.1816 63.3307 58.6749 63.624C58.1683 63.912 57.5976 64.056 56.9629 64.056ZM57.1229 63.024C57.5229 63.024 57.8749 62.9227 58.1789 62.72C58.4883 62.5173 58.7256 62.2453 58.8909 61.904C59.0616 61.5573 59.1469 61.1813 59.1469 60.776C59.1469 60.3387 59.0243 59.9947 58.7789 59.744C58.5336 59.4933 58.1896 59.368 57.7469 59.368C57.3523 59.368 57.0003 59.4693 56.6909 59.672C56.3869 59.8747 56.1496 60.1467 55.9789 60.488C55.8136 60.8293 55.7309 61.2027 55.7309 61.608C55.7309 62.0453 55.8509 62.392 56.0909 62.648C56.3363 62.8987 56.6803 63.024 57.1229 63.024Z" fill="black"/>
</svg>
