<svg width="68" height="92" viewBox="0 0 68 92" fill="none" xmlns="http://www.w3.org/2000/svg">
<path fill-rule="evenodd" clip-rule="evenodd" d="M21.0448 1.37084C3.9068 5.98384 -0.640194 10.0698 0.069806 20.2168C0.408806 25.0478 0.955805 26.5248 3.09181 28.3608C4.52581 29.5948 6.15581 30.7648 6.71381 30.9598C7.83481 31.3538 6.05581 52.9348 4.82881 53.8158C3.24881 54.9518 1.83381 58.9048 1.83381 62.1848C1.83381 67.3758 3.38081 70.5298 6.79081 72.2938C8.46481 73.1588 9.83381 74.4278 9.83381 75.1138C9.83381 77.3978 15.9728 83.8458 20.1808 85.9818C22.4648 87.1418 25.4068 88.9288 26.7188 89.9528C29.9378 92.4668 37.7298 92.4668 40.9488 89.9528C42.2608 88.9288 45.2028 87.1418 47.4868 85.9818C51.6948 83.8458 57.8338 77.3978 57.8338 75.1138C57.8338 74.4278 59.2028 73.1588 60.8768 72.2938C62.5508 71.4278 64.3508 69.5868 64.8768 68.2028C66.4168 64.1538 65.9998 58.2998 63.9868 55.7008C61.8068 52.8868 59.1948 31.5768 60.9538 30.9598C61.5118 30.7648 63.1418 29.5948 64.5758 28.3608C68.2378 25.2118 68.9288 15.8858 65.8628 10.9998C60.6238 2.64884 35.9718 -2.64716 21.0448 1.37084ZM50.8338 8.20284C55.3768 9.74984 59.2208 11.7768 60.5838 13.3418C63.3078 16.4718 63.3388 16.9708 60.9978 19.8618C58.7168 22.6788 54.0948 22.7368 49.5588 20.0068C45.9308 17.8228 43.8338 18.1078 43.8338 20.7838C43.8338 22.7628 47.7018 25.6868 51.7478 26.7668C54.0798 27.3888 54.4038 28.0838 55.0458 33.8408C55.4368 37.3528 55.6518 40.3308 55.5228 40.4598C55.3938 40.5888 50.4608 40.2058 44.5608 39.6098C36.8498 38.8298 30.8178 38.8298 23.1068 39.6098C17.2068 40.2058 12.2978 40.6088 12.1978 40.5048C12.0978 40.4008 12.2558 37.3488 12.5498 33.7218C13.0678 27.3148 13.1788 27.0928 16.4578 25.9068C19.9558 24.6418 20.9408 22.1778 18.3468 21.1818C17.5278 20.8678 15.6138 21.0458 14.0908 21.5758C8.28381 23.6008 3.28781 18.8238 6.34081 14.1648C8.18281 11.3538 12.2218 9.39684 21.8338 6.65884C30.3758 4.22484 40.7808 4.77984 50.8338 8.20284ZM52.1658 45.7468C55.0468 46.3338 55.3808 46.7988 55.8548 50.8748C56.1748 53.6328 57.2238 56.2058 58.5818 57.5638C61.1498 60.1318 60.6298 62.5628 57.2378 63.8518C55.9608 64.3378 54.0168 66.4968 52.9188 68.6498C50.8208 72.7618 45.5748 77.8158 43.4028 77.8158C42.7008 77.8158 40.9118 78.9408 39.4288 80.3158C36.1828 83.3238 31.6028 83.5848 28.9328 80.9148C27.8868 79.8688 26.0848 78.7128 24.9268 78.3458C21.5228 77.2648 16.8958 72.8568 14.7488 68.6498C13.6508 66.4968 11.7068 64.3378 10.4298 63.8518C6.94281 62.5268 6.57281 60.1998 9.36981 57.1818C11.0888 55.3278 11.8338 53.3758 11.8338 50.7288C11.8338 48.6418 12.2898 46.6518 12.8468 46.3078C16.1878 44.2428 42.9108 43.8618 52.1658 45.7468Z" fill="#B2B2B2"/>
</svg>
