<svg width="243" height="253" viewBox="0 0 243 253" fill="none" xmlns="http://www.w3.org/2000/svg">
<path fill-rule="evenodd" clip-rule="evenodd" d="M199.86 1.76407C198.891 2.73206 198.098 5.2208 198.098 7.29432C198.098 9.36518 194.001 15.8528 188.996 21.7084C183.988 27.5666 179.16 35.7046 178.262 39.7934L176.63 47.2279L167.182 41.6474C161.984 38.5768 157.168 33.9008 156.476 31.2561C155.787 28.6113 153.449 26.4478 151.284 26.4478C148.782 26.4478 147.932 27.9712 148.949 30.6266C151.355 36.9053 147.61 64.5962 144.926 60.3593C142.01 55.7547 141.87 56.6804 140.483 89.7666C140.021 100.756 139.733 101.182 136.035 96.3786C132.303 91.536 132.089 91.7687 132.242 100.502C132.536 117.468 129.054 132.58 125.528 129.65C120.713 125.648 119.115 129.034 122.044 137.021C123.832 141.895 123.727 146.534 121.706 151.726L118.753 159.311L107.58 146.674C101.434 139.724 95.5256 131.771 94.4479 129.002C91.5847 121.636 86.8753 126.048 88.7031 134.384C90.2429 141.403 90.2086 141.393 85.9957 133.562C83.6476 129.198 78.9091 123.247 75.4648 120.338C72.0206 117.428 68.7876 112.903 68.2778 110.28C67.0602 103.998 62.1236 105.635 61.8806 112.403C61.7749 115.313 59.6381 122.255 57.1315 127.83C53.505 135.892 51.8357 137.354 48.9725 134.974C46.833 133.194 44.7543 132.985 43.8457 134.456C43.0058 135.818 44.2736 138.552 46.6614 140.536C50.2509 143.517 58.1088 158.396 58.1088 162.215C58.1088 162.792 53.0956 162.347 46.9704 161.226C31.3365 158.364 6.85684 132.239 19.8098 132.239C21.9889 132.239 23.7718 130.454 23.7718 128.272C23.7718 125.646 21.149 124.305 16.0037 124.305C11.7301 124.305 7.50132 123.115 6.60327 121.66C4.13629 117.664 0 118.492 0 122.982C0 125.164 1.24934 126.95 2.77602 126.95C4.30269 126.95 7.38246 131.411 9.61965 136.868C11.8568 142.324 17.3323 150.607 21.7882 155.278L29.8917 163.773L23.5314 169.076C20.0317 171.993 13.8986 174.418 9.90491 174.469C0.94823 174.577 -0.340729 182.461 8.58425 182.548C11.8542 182.58 17.4987 184.934 21.1305 187.78C24.7623 190.626 29.3661 192.979 31.3576 193.011C34.0914 193.056 34.2604 193.945 32.0417 196.619C28.365 201.054 30.7818 203.648 38.5842 203.648C41.8885 203.648 45.3988 204.955 46.384 206.555C47.3719 208.152 51.8991 211.08 56.4448 213.064C60.9931 215.045 63.2276 216.711 61.4104 216.769C55.3777 216.957 57.9978 221.562 65.1637 223.363C69.0438 224.336 75.1479 227.441 78.7268 230.26C82.3058 233.08 87.7495 235.505 90.8214 235.65C96.0802 235.899 96.0512 236.013 90.309 237.634C74.8547 241.993 87.7284 247.663 119.295 250.403C130.605 251.384 137.147 250.421 146.109 246.452L157.961 241.202L167.475 247.98C180.354 257.158 183.32 252.833 171.294 242.413C163.616 235.761 162.102 232.987 163.846 228.774C165.047 225.865 166.115 217.83 166.218 210.922C166.347 202.054 167.483 198.359 170.071 198.359C172.089 198.359 173.574 200.313 173.373 202.702C173.169 205.092 174.59 207.605 176.529 208.287C178.959 209.142 179.778 207.587 179.171 203.281C178.46 198.253 180.23 196.156 188.259 192.509C194.015 189.893 200.156 184.381 202.786 179.465C205.293 174.783 210.076 168.298 213.415 165.056C217.517 161.075 218.515 158.557 216.487 157.304C214.836 156.28 212.163 156.77 210.547 158.388C204.173 164.77 203.888 160.819 210.063 151.705C213.653 146.413 216.587 140.152 216.587 137.796C216.587 135.439 219.104 131.938 222.182 130.012C226.305 127.436 226.999 125.738 224.823 123.559C222.646 121.38 221.035 121.438 218.7 123.776C212.493 129.991 211.667 126.831 217.773 120.232C221.194 116.537 224.796 110.29 225.779 106.347C226.759 102.406 229.445 97.09 231.743 94.5352C237.192 88.4813 234.506 85.982 226.923 90.047L220.956 93.2445L226.513 86.1697C229.569 82.2793 232.818 75.6805 233.735 71.507C234.651 67.3309 237.11 63.2606 239.2 62.4566C243.286 60.8856 244.524 52.8957 240.681 52.8957C239.408 52.8957 237.118 54.3979 235.597 56.2361C233.898 58.2831 228.407 59.2247 221.405 58.6666L209.984 57.7568L209.699 41.4411C209.355 21.9306 206.064 0 203.478 0C202.456 0 200.827 0.793436 199.86 1.76407ZM204.366 32.0416C206.577 43.11 201.949 59.4944 194.699 66.2677L188.854 71.7266L185.467 63.4457C181.075 52.7026 183.727 38.8201 192.065 28.8969C199.627 19.8967 202.065 20.5182 204.366 32.0416ZM169.923 52.4329C178.626 61.5309 182.409 73.6678 180.401 86.0613C178.935 95.1038 174.326 101.644 174.326 94.6806C174.326 92.7605 171.519 88.1586 168.088 84.4559C158.716 74.3317 155.837 67.5822 155.837 55.715C155.837 42.7635 159.789 41.8431 169.923 52.4329ZM227.153 69.9387C227.153 76.9632 215.409 87.0055 200.898 92.3956C192.992 95.3313 186.091 97.2937 185.555 96.7568C183.183 94.3818 192.855 77.0505 199.456 71.8535C208.074 65.0643 227.153 63.7472 227.153 69.9387ZM161.297 87.4683C169.897 96.6854 173.109 109.264 170.467 123.366L168.661 133.006L163.996 125.35C161.434 121.139 157.419 116.111 155.079 114.175C145.927 106.609 142.628 79.3435 150.866 79.3435C152.435 79.3435 157.129 82.9986 161.297 87.4683ZM219.229 103.496C219.229 110.042 202.451 126.942 195.93 126.966C193.489 126.976 188.09 128.761 183.93 130.933C174.144 136.042 174.334 136.14 176.862 127.317C182.145 108.875 194.752 97.8861 210.644 97.8676C217.649 97.8597 219.229 98.8964 219.229 103.496ZM151.881 120.594C160.309 129.7 164.678 143.702 162.583 154.892C161.093 162.842 155.837 168.055 155.837 161.583C155.837 160.266 151.677 154.202 146.593 148.108C139.649 139.785 137.348 134.567 137.348 127.14C137.348 111.702 141.796 109.698 151.881 120.594ZM76.4051 131.274C80.758 136.812 81.8806 142.03 81.8806 156.722C81.8806 175.085 81.8436 175.177 76.1568 171.395C63.7982 163.181 57.1711 141.229 63.4838 129.42C67.1421 122.578 69.8837 122.969 76.4051 131.274ZM207.44 135.043C210.161 139.452 203.632 152.422 197.263 155.265C188.304 159.264 166.402 166.09 166.402 164.886C166.402 160.774 174.54 145.945 178.962 142.004C187.652 134.255 204.424 130.158 207.44 135.043ZM104.836 152.474C111.072 162.004 111.738 196.325 105.623 193.051C92.7971 186.185 85.4648 167.883 90.0131 154.088C93.4574 143.638 98.6819 143.07 104.836 152.474ZM145.32 158.01C150.23 164.246 150.449 165.423 146.844 166.153C143.743 166.783 143.043 168.883 144.194 174.088C145.724 181.004 145.636 180.975 140.449 172.86C137.525 168.293 133.851 163.76 132.279 162.786C130.708 161.816 129.424 157.478 129.424 153.149C129.424 146.204 130.021 145.598 134.501 147.997C137.295 149.494 142.163 154.001 145.32 158.01ZM136.59 198.446L136.027 217.184L126.122 206.552C115.47 195.116 113.465 184.765 119.057 170.099L121.896 162.654L129.524 171.181C136.574 179.063 137.11 181.133 136.59 198.446ZM200.739 168.676C200.739 173.064 192.139 182.704 184.863 186.473C176.928 190.581 161.051 191.903 161.212 188.441C161.445 183.543 168.867 173.503 174.617 170.314C181.442 166.524 200.739 165.318 200.739 168.676ZM68.4997 175.172L80.5599 181.08L68.674 183.278C40.6365 188.465 33.0771 188.425 26.4606 183.061L20.1056 177.907L27.8816 173.694C38.8906 167.727 54.4559 168.293 68.4997 175.172ZM152.359 175.053C151.516 177.161 150.89 176.534 150.763 173.453C150.65 170.665 151.273 169.105 152.15 169.983C153.027 170.861 153.122 173.143 152.359 175.053ZM159.659 210.348C159.487 228.158 155.51 233.447 149.358 224.048C143.41 214.955 141.619 201.21 145.172 191.935L148.143 184.188L153.97 190.03C158.608 194.677 159.77 198.83 159.659 210.348ZM84.2023 190.332C89.094 191.736 96.2176 194.981 100.034 197.542L106.973 202.194L95.0871 204.376C67.2583 209.483 63.3993 209.552 56.5768 205.074C51.1331 201.504 50.4384 199.917 52.982 196.849C55.5097 193.799 65.7791 189.48 73.9751 188.018C74.7094 187.888 79.3132 188.928 84.2023 190.332ZM126.049 217.272L136.027 223.484L124.141 225.389C117.604 226.436 107.956 228.033 102.699 228.943C92.1183 230.771 75.1532 224 78.1484 219.144C81.4553 213.786 96.4791 208.877 106.239 209.964C111.645 210.567 120.56 213.855 126.049 217.272ZM173.259 213.818C170.058 219.001 168.46 238.031 171.223 238.031C173.883 238.031 179.561 222.331 179.593 214.889C179.612 211.146 175.351 210.427 173.259 213.818ZM148.677 235.092C149.976 236.394 145.526 239.25 138.407 241.678C125.124 246.208 116.701 246.999 109.831 244.36C97.356 239.567 116.939 229.324 134.601 231.405C141.078 232.167 147.411 233.825 148.677 235.092Z" fill="#707070"/>
</svg>
