<svg width="274" height="307" viewBox="0 0 274 307" fill="none" xmlns="http://www.w3.org/2000/svg">
<path fill-rule="evenodd" clip-rule="evenodd" d="M164.25 6.76167C152.584 16.9538 148.785 22.9644 145.836 35.9124C142.677 49.7749 146.805 67.7851 155.992 80.2281L162.411 88.9175L148.835 101.207C141.367 107.965 134.401 113.551 133.355 113.622C132.309 113.693 130.719 108.27 129.821 101.576C126.887 79.6646 109.712 62.1163 94.8599 65.8482C83.5076 68.7027 69.1289 93.3362 69.1289 109.936C69.1289 125.471 73.4379 135.302 80.2474 135.302C84.0428 135.302 84.5164 133.298 82.6095 125.295C81.2962 119.789 80.4473 111.371 80.7211 106.583C81.3916 94.922 92.913 76.7978 99.661 76.7978C111.917 76.7978 123.005 100.594 119.49 119.358C118.303 125.692 111.435 136.328 101.574 147.093C92.7807 156.697 79.9952 171.717 73.158 180.474L60.7293 196.394L57.2169 184.662C53.3477 171.726 32.5132 150.698 23.5722 150.698C20.5181 150.698 15.8431 152.432 13.1827 154.547C6.09941 160.185 -1.95882 173.959 0.427891 176.348C4.53082 180.453 9.73484 178.254 13.767 170.713C19.1863 160.573 26.0574 160.992 36.6961 172.108C48.8972 184.859 51.0748 207.466 41.5802 222.844C34.2509 234.717 30.1418 234.532 18.6389 221.806C15.434 218.262 10.9528 215.361 8.67681 215.361C0.81235 215.361 4.58618 224.159 17.0211 234.816L29.5021 245.51L20.8657 261.05C14.1453 273.139 13.0473 277.413 15.9169 280.305C18.7896 283.199 21.776 280.52 29.4467 268.166C34.863 259.446 39.7441 252.312 40.2946 252.312C40.8482 252.312 45.8308 255.077 51.3701 258.458C62.6547 265.346 86.897 266.768 97.7818 261.18C101.476 259.283 108.996 253.469 114.495 248.259C135.446 228.405 122.738 206.478 88.6348 203.645C79.5985 202.897 72.2046 201.557 72.2046 200.671C72.2046 199.784 77.3963 192.791 83.7383 185.13C90.0834 177.466 96.2439 169.728 97.4342 167.93C98.7967 165.87 102.774 167.702 108.199 172.881C125.303 189.219 150.619 192.378 171.278 180.754C181.455 175.027 192.155 162.125 192.155 155.576C192.155 150.911 172.213 132.223 167.23 132.223C159.193 132.223 159.886 134.985 170.727 146.184C182.289 158.128 180.615 163.686 162.863 172.29C146.119 180.403 130.741 178.183 117.146 165.691L107.575 156.894L137.787 127.22L167.999 97.5423L179.308 108.36C194.536 122.924 201.475 126.065 218.446 126.065C235.411 126.065 254.499 116.51 259.506 105.511C263.437 96.8711 257.565 82.365 247.616 76.1451C242.104 72.6994 242.356 72.0744 251.888 65.5896C262.317 58.4951 269.976 45.4425 273.47 28.8056C277.896 7.72546 253.912 -2.94701 227.953 8.5476C219.796 12.1626 213.685 16.9199 213.685 19.6604C213.685 25.7141 217.705 25.7141 229.402 19.6573C234.495 17.0215 243.768 15.2879 250.008 15.8083C263.664 16.9446 266.082 24.4947 258.153 41.224C250.891 56.546 236.663 64.478 216.398 64.4996C200.752 64.518 194.007 66.6827 177.411 77.0226C170.936 81.0533 169.863 80.7792 164.404 73.7187C152.227 57.9594 152.959 34.225 166.055 20.0761C179.225 5.85023 190.267 11.6022 195.117 35.2103C197.47 46.6464 207.567 49.9966 207.466 39.3025C207.429 35.3673 204.778 26.373 201.576 19.3124C192.438 -0.834691 178.364 -5.5674 164.25 6.76167ZM231.121 79.683C247.723 87.2301 253.155 96.5724 245.724 104.794C231.631 120.381 204.237 118.878 187.714 101.61C177.657 91.1007 179.081 87.4888 196.378 79.6245C212.178 72.4408 215.204 72.4469 231.121 79.683ZM102.011 217.387C117.401 224.697 118.109 230.031 105.259 241.821C90.1357 255.696 76.2368 257.894 58.3703 249.236L44.3329 242.431L49.9153 232.747C55.9805 222.222 72.5398 212.295 84.0428 212.288C88.0165 212.285 96.1025 214.579 102.011 217.387ZM2.83613 298.767C-0.331797 303.903 6.79451 309.791 11.0389 305.542C14.5882 301.988 12.3676 295.42 7.61571 295.42C6.12401 295.42 3.97413 296.926 2.83613 298.767Z" fill="#707070"/>
</svg>
