<svg width="86" height="85" viewBox="0 0 86 85" fill="none" xmlns="http://www.w3.org/2000/svg">
<path fill-rule="evenodd" clip-rule="evenodd" d="M36.1153 14.356L29.8003 28.711L16.1253 30.021C-4.42473 31.988 -3.83473 30.855 9.47327 42.806C16.5163 49.131 20.9493 53.852 20.9493 55.026C20.9493 56.078 19.6013 63.104 17.9543 70.641C16.3073 78.177 15.0953 84.48 15.2623 84.646C15.4293 84.813 21.7423 81.397 29.2923 77.054L43.0193 69.159L56.6733 77.058C64.1823 81.402 70.4643 84.818 70.6333 84.65C70.8013 84.481 69.5913 78.177 67.9443 70.641C66.2973 63.104 64.9493 56.078 64.9493 55.026C64.9493 53.852 69.3823 49.131 76.4253 42.806C89.7693 30.823 90.3463 31.92 69.6813 29.985L56.0993 28.714L49.7833 14.357C46.3093 6.461 43.2343 0 42.9493 0C42.6643 0 39.5893 6.46 36.1153 14.356ZM47.5133 25.893L51.2793 34.786L55.8643 35.342C58.3863 35.648 63.1213 36.208 66.3873 36.588L72.3243 37.277L64.5623 44.389L56.7993 51.5L58.8683 60.923C60.0053 66.106 60.7363 70.546 60.4933 70.79C60.2493 71.033 56.4483 69.156 52.0463 66.616C47.6443 64.077 43.5503 62 42.9493 62C42.3483 62 38.2543 64.077 33.8523 66.616C29.4503 69.156 25.6493 71.033 25.4053 70.79C25.1623 70.546 25.8933 66.106 27.0303 60.923L29.0993 51.5L21.3363 44.389L13.5743 37.277L19.5113 36.617C22.7773 36.253 27.5083 35.709 30.0243 35.408L34.5993 34.86L38.4243 25.93C40.5283 21.019 42.5863 17 42.9983 17C43.4103 17 45.4423 21.002 47.5133 25.893Z" fill="#B2B2B2"/>
</svg>
